# xmcd
#
# Track frame offsets: 
#        150
#        19330
#        41075
#        62222
#        80715
#        107085
#        127292
#        149145
#        167542
#        189417
#        209770
#        229622
#        249262
#
# Disc length: 3622 seconds
#
# Revision: 0
# Processed by: cddbd v1.5.2PL0 Copyright (c) Steve Scherf et al.
# Submitted via: ExactAudioCopy v1.3
#
DISCID=c50e240d
DTITLE=Whitney Houston - Whitney Houston - Story
DYEAR=1998
DGENRE=Pop
TTITLE0=All The Man That I Need
TTITLE1=Greatest Love Of All
TTITLE2=I Wanna Dance With Somebody
TTITLE3=I'm Your Baby Tonight
TTITLE4=Miracle
TTITLE5=My Name Is Not Susan
TTITLE6=One Moment In Time
TTITLE7=Saving All My Love For You
TTITLE8=I Have Nothing
TTITLE9=I Will Always Love You
TTITLE10=Where Do Broken Hearts Go
TTITLE11=So Emotional
TTITLE12=Didn't We Almost Have It All
EXTD=
EXTT0=
EXTT1=
EXTT2=
EXTT3=
EXTT4=
EXTT5=
EXTT6=
EXTT7=
EXTT8=
EXTT9=
EXTT10=
EXTT11=
EXTT12=
PLAYORDER=
